<?xml version="1.0" encoding="UTF-8"?><svg id="Layer_2" xmlns="http://www.w3.org/2000/svg" viewBox="0 0 2000 682.8"><defs><style>.cls-1{fill:none;}.cls-2{fill:#fff;}.cls-3{fill:#05e273;}</style></defs><g id="Layer_2-2"><g><polygon class="cls-2" points="127.75 21.49 17.19 132.11 56.64 201.79 128.54 129.85 128.54 422.3 0 422.3 0 499.62 317.67 499.62 317.67 422.3 205.8 422.3 205.8 21.49 127.75 21.49"/><rect class="cls-1" width="2000" height="682.8"/><path class="cls-2" d="M639.52,659.95c-87.55,0-158.83-71.21-158.83-158.76,0-62.38,36.8-119.22,93.83-144.78l1.86-.85-95.7-95.64v-78.1h317.61v77.26h-209.36l90.44,90.37-39.79,70.3c-45.05,.45-81.57,36.82-81.57,81.44s36.57,81.5,81.51,81.5,80.72-35.8,81.51-80.08h77.33c-.74,86.87-71.73,157.34-158.84,157.34"/><polygon class="cls-2" points="1683.41 659.95 1912.78 259.14 1683.24 259.14 1683.24 181.83 2000 181.83 2000 260.38 1771.36 659.95 1683.41 659.95"/><path class="cls-2" d="M1360.54,499.61c-87.11,0-158.04-70.41-158.84-157.28h77.33c.74,44.28,37.02,80.03,81.51,80.03s81.51-36.53,81.51-81.44-36.52-80.99-81.56-81.44l-39.85-70.3,90.44-90.38h-209.37V21.55h317.61V99.65l-95.69,95.64,1.86,.85c56.98,25.56,93.83,82.46,93.83,144.78,0,87.49-71.22,158.69-158.83,158.69h.05Z"/><polygon class="cls-3" points="962.1 20.98 1039.37 0 1039.37 661.37 962.1 682.8 962.1 20.98"/></g></g></svg>